<?xml version="1.0" encoding="utf-8"?>
<!-- Generator: Adobe Illustrator 25.4.1, SVG Export Plug-In . SVG Version: 6.00 Build 0)  -->
<svg version="1.1" id="圖層_1" xmlns="http://www.w3.org/2000/svg" xmlns:xlink="http://www.w3.org/1999/xlink" x="0px" y="0px"
	 viewBox="0 0 512 512" style="enable-background:new 0 0 512 512;" xml:space="preserve">
<style type="text/css">
	.st0{fill:#FFFFFF;}
</style>
<path class="animated-circle" d="M256.5,33C443,77,516,148,488,264.5S314,480,256.5,496S135,406.5,77,345S70-11,256.5,33z" style="fill:rgba(255,255,255,.09)"/>
<path class="animated-circle" d="M256,64.6C401,100,473.8,125,455.4,264S409,506.8,256,463.4S33.2,367.8,56.6,264S111,29.2,256,64.6z" style="fill:rgba(255,255,255,.06)"/>
<path class="animated-circle" d="M412.5,265C470,525,308,448.1,257,420.5S69.2,447,101.5,265S355.1,5,412.5,265z" style="fill:rgba(255,255,255,.03)"/>
<path class="st0" d="M266.8,213.4h-16v53.2l45.6,27l7.7-12.9l-37.2-22.1V213.4 M261.5,160.2c-52.9,0-95.8,42.9-95.8,95.8h-31.9
	l42.1,42.9l43-42.9H187c0-41.1,33.4-74.5,74.5-74.5S336,214.9,336,256s-33.4,74.5-74.5,74.5c-20.5,0-39.2-8.4-52.6-21.9l-15.1,15.1
	c17.3,17.5,41.1,28.1,67.7,28.1c52.9,0,95.8-42.9,95.8-95.8S314.4,160.2,261.5,160.2"/>
	 <style>
        .animated-circle{
            animation: spin 50s linear infinite;
            transform-origin: center;
        }
        .animated-circle:nth-child(1){
            animation-delay: -20s;
						animation-time: 40s;
        }
        .animated-circle:nth-child(2){
            animation-delay: -10s;
						animation-time: 45s;
        }
        @keyframes spin {
            100% {
                transform: rotate(360deg);
            }
        }
    </style>
</svg>
