<?xml version="1.0" encoding="utf-8"?>
<!-- Generator: Adobe Illustrator 25.4.1, SVG Export Plug-In . SVG Version: 6.00 Build 0)  -->
<svg version="1.1" id="圖層_1" xmlns="http://www.w3.org/2000/svg" xmlns:xlink="http://www.w3.org/1999/xlink" x="0px" y="0px"
	 viewBox="0 0 1024 1024" style="enable-background:new 0 0 1024 1024;" xml:space="preserve">
<style type="text/css">
	.st0{fill:#FFFFFF;}
</style>
<g id="_x31_ILyAP.tif">
	<g>
		<path class="st0" d="M1025,497c0,176,0,352,0,528c-191,0-382,0-573,0c-1.4-1.6-2.8-3.3-4.3-4.8C359.2,931.4,270.8,842.7,182.3,754
			c-27.5-27.6-55.1-55.1-82.7-82.7c-1.8-1.8-3.2-3.9-5.6-7c3.7-0.5,5.7-1.1,7.7-1.1c8.7-0.1,17.3,0,26,0c9.3,0,9.3,0,9.3-9.1
			c0-46.7,0-93.3,0-140c0-1.9,0-3.8,0-5.7c1.4,0.8,1.8,1.6,2.1,2.5c5.6,15.9,11.3,31.7,16.9,47.6c11.7,32.8,23.4,65.6,34.9,98.5
			c1.6,4.4,3.9,6.4,8.7,6.3c10-0.3,20,0,30-0.1c1.8,0,3.7-0.6,6.1-1c-0.8-2.6-1.3-4.5-1.9-6.4c-17.1-47.7-34.2-95.3-51.3-143
			c-2.8-7.7-2.7-7.7,4.5-10.9c1.2-0.5,2.4-1.1,3.6-1.8c15.8-9,23.4-23.8,27.5-40.6c5.5-22.8,5.8-45.9,1.3-68.9
			c-1.4-7.1-4-13.9-5.4-18.6c24.5,24.5,50.4,50.4,76.6,76.6c-0.5,0.4-1.5,1.4-2.6,2.4c-7.5,6.2-13.1,13.7-17,22.6
			c-6.1,13.9-9.2,28.5-10.8,43.5c-2.3,21.4-2.6,42.9-1.1,64.4c1.2,16,3.3,31.8,9,46.9c7.9,21,21.6,35.5,45,38.2
			c25.9,3,48.3-5.7,60-31.2c6.1-13.3,8.4-27.3,9.6-41.7c0.3-3.8-2-4.4-5-4.4c-8.2,0-16.3,0-24.5,0c-6.4,0-6.3,0.6-7.1,6.8
			c-1.1,7.9-2.4,15.8-4.8,23.3c-2.3,7.1-8,11.3-15.8,12c-9.7,0.9-16.5-3.5-21.1-14.1c-6.9-16.1-7.1-33.4-8-50.5
			c-0.2-3.1,1.7-4.5,4.7-4.5c1.7,0,3.3,0,5,0c23.8,0,47.7,0,71.5,0c3.3,0,6.5-0.1,6.5-4.7c0.3-26.8-1.5-53.3-11-78.7
			c-0.7-1.9-1.5-3.9-2.2-5.8c0.5-0.4,1-0.8,1.5-1.2c1.2,1.6,2.2,3.4,3.5,4.7c12.7,12.7,25.6,25.3,38.3,38c0.6,0,1.2-0.1,1.8-0.1
			c6.9,27.1,13.8,54.3,20.7,81.4c5.2,20.5,10.7,41,15.8,61.5c1.1,4.5,3.3,6.5,8,6.2c3.6-0.3,7.3,0,11,0c9.3,0,9.3,0,11.6-9.1
			c16.3-66,32.7-132,49-198c0.6-2.3,1.4-4.5,2.5-8c6.2,6.2,11.4,11.8,17.1,16.9c4.8,4.2,6.4,9.1,6.4,15.4
			c-0.2,57.5-0.1,115-0.1,172.5c0,1.8,0,3.7,0.1,5.5c0,3,1.4,4.7,4.5,4.7c10,0,20,0.2,30-0.2c1.5-0.1,3.5-2.4,4.3-4.2
			c0.7-1.7,0.2-3.9,0.2-5.9c0-65.2,0-130.3,0-195.5c0-2.2,0.2-4.5,0.4-7.8c2.1,1.9,3.4,2.9,4.5,4c8.7,8.7,17.6,17.3,26.2,26.2
			c12.1,12.4,10.7,7.4,7.4,24c-0.2,1-0.3,2-0.5,3c-4.1,23.6-3.5,47.5-2.6,71.3c0.7,17.1,3.1,34.2,9.3,50.4
			c8.3,21.8,22.8,36.3,47.1,38.2c20.6,1.6,38.9-3,51.6-20.8c10.9-15.3,14.4-33.1,15.6-51.5c0.3-4-1.8-5.3-5.5-5.2
			c-8,0.1-16,0.2-24-0.1c-4.7-0.1-6.4,1.7-6.6,6.4c-0.6,9.3-1.5,18.7-6.7,26.9c-7.7,12.2-24.9,12.3-32.4,0
			c-2.5-4.1-4.8-8.6-5.6-13.2c-2.2-12.9-3.8-26-5.1-39.1c-0.7-7.6,0.2-8,7.7-8c24.5,0,49,0,73.5,0c6,0,6.8-0.6,6.6-6.6
			c-0.2-8.3-0.4-16.7-1-25c-1.5-19.3-4.2-38.4-12.3-56.3c-0.3-0.7-0.3-1.6-0.7-3.4c2.1,2,3.5,3.3,4.7,4.5
			c11.6,11.5,23.1,23.1,34.7,34.6c1.3,1.3,3.2,2.2,4.8,3.3c0.3,0,0.6,0,0.8,0c0.3,1.5,0.4,3,0.8,4.4c6.4,27.6,12.8,55.2,19.2,82.8
			c4.4,19,8.9,38,13.1,57c1,4.4,3.1,6.2,7.6,5.9c5.3-0.3,10.7-0.2,16,0c3.7,0.1,5.5-1.6,6.1-5.2c6.1-34.1,12.4-68.2,18.2-102.3
			c2.5-14.8,3.8-29.8,5.7-44.9c0.5,5.6,1,11.1,1.5,16.6c3.9,44.3,14.3,87.4,22.1,131c0.6,3.4,2.5,4.8,5.9,4.8c4.8-0.1,9.7,0,14.5,0
			c7.7,0,7.8-0.2,9.5-7.8c14.8-66.5,29.7-133,44.5-199.5c0.5-2.2,1.2-4.3,2.1-7.4c2.1,1.9,3.6,3.2,5,4.6
			C995.4,467.7,1010.2,482.4,1025,497z"/>
		<path class="st0" d="M414.1,514.2c-4.6-18.7-9.2-37.4-13.9-56.1c-0.6-2.6-1.3-5.1-1.9-7.7c0.4-0.1,0.8-0.2,1.3-0.3
			c5.4,21.3,10.9,42.7,16.3,64C415.3,514.1,414.7,514.2,414.1,514.2z"/>
		<path class="st0" d="M788.1,513.1c-4-16.8-8.1-33.6-12.1-50.5c-1-4-1.8-8.1-2.8-12.1c0.4-0.1,0.9-0.2,1.3-0.3
			c4.8,21,9.6,42,14.3,62.9C788.6,513.1,788.4,513.1,788.1,513.1z"/>
		<path class="st0" d="M550.8,389.3c8.2,13.7,19.1,19.2,31.8,15.8c13.5-3.6,19.4-14.2,19.2-32.8c23.3,23.4,47.2,47.3,71.3,71.6
			c-17.6,6.9-26.7,22.5-33.2,40.9c-2.1-1.8-3.5-2.9-4.7-4.1c-24.5-24.5-49-48.9-73.5-73.5C556.8,402,552,396.7,550.8,389.3z"/>
		<path class="st0" d="M137,427.1c0-15.8,0-31.7,0-47.5c0-6,0.7-6.6,6.7-6.7c18.2-0.3,29.1,7.4,33.7,25c4.9,18.8,5.4,38,0.4,56.9
			c-5.3,19.9-19.3,24.8-36.9,25.9c-3.9,0.2-3.8-2.9-3.8-5.6C137,459.1,137,443.1,137,427.1z"/>
		<path class="st0" d="M443,451c2.8,3,5.6,6.1,8.5,9c10.6,10.6,21.3,21.1,31.7,31.9c1.7,1.8,3.1,5,2.7,7.3
			c-5.6,33.5-11.5,67-17.3,100.4c-0.1,0.6-0.4,1.2-1.1,1.9c-3.2-50.8-15.3-100-26.1-149.5C441.9,451.7,442.4,451.3,443,451z"/>
		<path class="st0" d="M893.5,450.4c1.7,2.2,3.2,4.6,5.1,6.6c9,9.1,18,18.3,27.2,27.2c3,2.9,3.7,5.7,3.1,9.8
			c-4.6,28.3-9,56.5-13.3,84.8c-0.8,4.9-1.2,9.8-1.5,12.7c-7.3-45.3-14.8-92.5-22.3-139.7C892.3,451.3,892.9,450.8,893.5,450.4z"/>
		<path class="st0" d="M693.9,532c-6.3,0-12.6,0-19,0c-2.9,0-5.2-0.9-4.7-4.3c1.9-12.6,3.2-25.4,6.3-37.8c3-12,12.2-16.8,22.6-13.8
			c7.1,2.1,10.9,7.7,12.5,14.4c2.3,9.5,3.6,19.3,5.3,28.9c0.1,0.5,0.1,1,0.1,1.5c0.8,11.1,0.8,11.1-10.7,11.1
			C702.2,532,698.1,532,693.9,532C693.9,532,693.9,532,693.9,532z"/>
		<path class="st0" d="M817.3,450.4c1.8,2.3,3.5,4.8,5.6,6.9c8.5,8.7,17,17.4,25.8,25.8c3.7,3.5,4.7,7.2,3.8,12.1
			c-4.1,22.3-8.1,44.6-11.9,66.9c-1.7,10.3-2.6,20.8-3.6,29.1c-6.8-45.1-14-92.2-21.1-139.3C816.4,451.4,816.9,450.9,817.3,450.4z"
			/>
		<path class="st0" d="M320.4,532c-6.2,0-12.3,0-18.5,0c-3.2,0-5.1-1.4-4.9-4.8c0.9-14.3,1.6-28.7,7.9-41.9
			c4.7-9.9,16.1-13.3,24.7-7.2c3.3,2.4,6.7,6.3,7.6,10.1c2.9,12.9,4.7,26.1,6.7,39.2c0.5,3.5-1.9,4.6-5,4.6
			C332.7,532,326.5,532,320.4,532z"/>
	</g>
</g>
</svg>
